# xmcd
#
# Track frame offsets:
#	150
#	12364
#	25183
#	38624
#	48257
#	58877
#	71050
#	83298
#	97388
#	111417
#	121400
#	134706
#	146948
#	160126
#	173179
#	186786
#	199222
#	211790
#	225628
#	237495
#	250717
#	264606
#
# Disc length: 3711
#
# Revision: 2
# Processed by: cddbd v1.5.1PL0 Copyright (c) Steve Scherf et al.
# Submitted via: CDex 1.50
# Normalized: r1:DSETVAR1
#
DISCID=430e7d16
DTITLE=Various Artist - STARS of The Grand Ole Opry  - CD 2
DYEAR=2000
DGENRE=Country
TTITLE0=Kitty Wells - Paying For That Back Street Affair
TTITLE1=Jim Reeves - Bimbo
TTITLE2=Hank Williams and The Drifting Cowboys - Hey Good Lookin'
TTITLE3=Jim and Jesse - Air Mail Special
TTITLE4=Hank Snow - Lady's Man
TTITLE5=Kitty Wells - It Wasn't God Who Made Honky Tonk Angels
TTITLE6=Marty Robbins - I'll Go On Alone
TTITLE7=Carl Smith - Mr Moon
TTITLE8=Pee Wee King - Slow Poke
TTITLE9=Ernest Tubb - Don't Be Ashamed Of Your Age
TTITLE10=George Morgan - Candy Kisses
TTITLE11=Red Foley - with The Cumberland Valley Boys - Tennessee Saturday Night
TTITLE12=Eddy Arnold - The I Turned And Walked Slowly Away
TTITLE13=Bill Monroe and His Bluegrass Boys - That Home Above
TTITLE14=Merle Travis - So Round, So Firm, So Fully Packed
TTITLE15=The Delmore Brothers - Freight Train Boogie
TTITLE16=Johnny Bond - I'll Step Aside
TTITLE17=Tex Ritter - There's A New Moon Over My Shoulder
TTITLE18=Bob Wills and His Texas Playboys - New San Antonio Rose
TTITLE19=Roy Acuff - A Great Speckle Bird  (Honky Tonk Angels tune)
TTITLE20=Carter Family - I'm Thinking Tonight Of My Blue Eyes
TTITLE21=Uncle Dave Macon - Go Long Mule
EXTD=YEAR: 2000
EXTT0=
EXTT1=
EXTT2=
EXTT3=
EXTT4=
EXTT5=
EXTT6=
EXTT7=
EXTT8=
EXTT9=
EXTT10=
EXTT11=
EXTT12=
EXTT13=
EXTT14=
EXTT15=
EXTT16=
EXTT17=
EXTT18=
EXTT19=
EXTT20=
EXTT21=
PLAYORDER=
